<svg width="24" height="24" viewBox="0 0 24 24" fill="none" xmlns="http://www.w3.org/2000/svg">
<path fill-rule="evenodd" clip-rule="evenodd" d="M15.7061 19.7071C15.3156 20.0976 14.6824 20.0976 14.2919 19.7071L14.999 19L15.7061 18.2929C16.0967 18.6834 16.0967 19.3166 15.7061 19.7071ZM10.4132 13L15.7061 18.2929C15.7061 18.2929 15.7061 18.2929 14.999 19C14.2919 19.7071 14.2919 19.7071 14.2919 19.7071L8.29192 13.7071C7.90139 13.3166 7.90139 12.6834 8.29192 12.2929L14.2919 6.29289C14.6824 5.90237 15.3156 5.90237 15.7061 6.29289C16.0967 6.68342 16.0967 7.31658 15.7061 7.7071L10.4132 13Z" fill="white"/>
</svg>
