<svg width="24" height="24" viewBox="0 0 24 24" fill="none" xmlns="http://www.w3.org/2000/svg">
<path fill-rule="evenodd" clip-rule="evenodd" d="M8.29192 6.29289C8.68244 5.90237 9.31561 5.90237 9.70613 6.29289L8.99902 7L8.29192 7.70711C7.90139 7.31658 7.90139 6.68342 8.29192 6.29289ZM13.5848 13L8.29192 7.70711C8.29192 7.70711 8.29192 7.70711 8.99902 7C9.70613 6.29289 9.70613 6.29289 9.70613 6.29289L15.7061 12.2929C16.0967 12.6834 16.0967 13.3166 15.7061 13.7071L9.70613 19.7071C9.31561 20.0976 8.68244 20.0976 8.29192 19.7071C7.90139 19.3166 7.90139 18.6834 8.29192 18.2929L13.5848 13Z" fill="white"/>
</svg>
