<svg width="24" height="24" viewBox="0 0 24 24" fill="none" xmlns="http://www.w3.org/2000/svg">
<path fill-rule="evenodd" clip-rule="evenodd" d="M5.29192 16.7071C4.90139 16.3166 4.90139 15.6834 5.29192 15.2929L5.99902 16L6.70613 16.7071C6.31561 17.0976 5.68244 17.0976 5.29192 16.7071ZM11.999 11.4142L6.70613 16.7071C6.7061 16.7071 6.70613 16.7071 5.99902 16C5.29192 15.2929 5.29189 15.2929 5.29192 15.2929L11.2919 9.29289C11.6824 8.90237 12.3156 8.90237 12.7061 9.29289L18.7061 15.2929C19.0967 15.6834 19.0967 16.3166 18.7061 16.7071C18.3156 17.0976 17.6824 17.0976 17.2919 16.7071L11.999 11.4142Z" fill="black"/>
</svg>
