<svg width="28" height="16" viewBox="0 0 28 16" fill="none" xmlns="http://www.w3.org/2000/svg">
<path fill-rule="evenodd" clip-rule="evenodd" d="M27.4142 0.585786C28.1953 1.36684 28.1953 2.63317 27.4142 3.41421L26 2L24.5858 0.585786C25.3668 -0.195262 26.6332 -0.195262 27.4142 0.585786ZM14 11.1716L24.5858 0.585786C24.5858 0.585727 24.5858 0.585786 26 2C27.4142 3.41421 27.4143 3.41415 27.4142 3.41421L15.4142 15.4142C14.6332 16.1953 13.3668 16.1953 12.5858 15.4142L0.585781 3.41421C-0.195267 2.63316 -0.195267 1.36683 0.585781 0.585785C1.36683 -0.195263 2.63316 -0.195263 3.41421 0.585785L14 11.1716Z" fill="black"/>
</svg>
