<svg width="28" height="16" viewBox="0 0 28 16" fill="none" xmlns="http://www.w3.org/2000/svg">
<path fill-rule="evenodd" clip-rule="evenodd" d="M0.583833 15.4152C-0.197215 14.6341 -0.197215 13.3678 0.583833 12.5868L1.99805 14.001L3.41226 15.4152C2.63121 16.1962 1.36488 16.1962 0.583833 15.4152ZM13.998 4.8294L3.41226 15.4152C3.4122 15.4152 3.41226 15.4152 1.99805 14.001C0.583833 12.5868 0.583774 12.5868 0.583833 12.5868L12.5838 0.586762C13.3649 -0.194286 14.6312 -0.194286 15.4123 0.586762L27.4123 12.5868C28.1933 13.3678 28.1933 14.6341 27.4123 15.4152C26.6312 16.1962 25.3649 16.1962 24.5838 15.4152L13.998 4.8294Z" fill="black"/>
</svg>
