<svg width="20" height="20" viewBox="0 0 20 20" fill="none" xmlns="http://www.w3.org/2000/svg">
<path fill-rule="evenodd" clip-rule="evenodd" d="M4.16667 6.66602V16.666C4.16667 17.1263 4.53976 17.4993 5 17.4993H11.6667C12.1269 17.4993 12.5 17.1263 12.5 16.666H7.5C6.11929 16.666 5 15.5467 5 14.166V5.83268C4.53976 5.83268 4.16667 6.20578 4.16667 6.66602ZM11.6667 19.166H5C3.61929 19.166 2.5 18.0467 2.5 16.666V6.66602C2.5 5.2853 3.61929 4.16602 5 4.16602H6.66667V14.166C6.66667 14.6263 7.03976 14.9993 7.5 14.9993H14.1667V16.666C14.1667 18.0467 13.0474 19.166 11.6667 19.166Z" fill="white"/>
<path fill-rule="evenodd" clip-rule="evenodd" d="M15 2.49967H7.5C7.03976 2.49967 6.66667 2.87277 6.66667 3.33301V14.1663C6.66667 14.6266 7.03976 14.9997 7.5 14.9997H15C15.4602 14.9997 15.8333 14.6266 15.8333 14.1663V3.33301C15.8333 2.87277 15.4602 2.49967 15 2.49967ZM7.5 0.833008C6.11929 0.833008 5 1.9523 5 3.33301V14.1663C5 15.5471 6.11929 16.6663 7.5 16.6663H15C16.3807 16.6663 17.5 15.5471 17.5 14.1663V3.33301C17.5 1.9523 16.3807 0.833008 15 0.833008H7.5Z" fill="white"/>
</svg>
