<svg width="36" height="44" viewBox="0 0 36 44" fill="none" xmlns="http://www.w3.org/2000/svg">
<path fill-rule="evenodd" clip-rule="evenodd" d="M4 14V38C4 39.1046 4.89543 40 6 40H22C23.1046 40 24 39.1046 24 38H12C8.68629 38 6 35.3137 6 32V12C4.89543 12 4 12.8954 4 14ZM22 44H6C2.68629 44 0 41.3137 0 38V14C0 10.6863 2.68629 8 6 8H10V32C10 33.1046 10.8954 34 12 34H28V38C28 41.3137 25.3137 44 22 44Z" fill="black"/>
<path fill-rule="evenodd" clip-rule="evenodd" d="M30 4H12C10.8954 4 10 4.89543 10 6V32C10 33.1046 10.8954 34 12 34H30C31.1046 34 32 33.1046 32 32V6C32 4.89543 31.1046 4 30 4ZM12 0C8.68629 0 6 2.68629 6 6V32C6 35.3137 8.68629 38 12 38H30C33.3137 38 36 35.3137 36 32V6C36 2.68629 33.3137 0 30 0H12Z" fill="black"/>
</svg>
