<svg width="48" height="48" viewBox="0 0 48 48" fill="none" xmlns="http://www.w3.org/2000/svg">
<path fill-rule="evenodd" clip-rule="evenodd" d="M24 48C37.2548 48 48 37.2548 48 24C48 10.7452 37.2548 0 24 0C10.7452 0 0 10.7452 0 24C0 37.2548 10.7452 48 24 48ZM11.1667 21.788C11.1667 16.2256 16.912 11.7156 24.0001 11.7156C31.0875 11.7156 36.8333 16.2256 36.8333 21.788C36.8333 27.3506 31.0875 31.8605 24.0001 31.8605C23.4554 31.8605 22.9202 31.8303 22.3935 31.7787L16.1524 35.9638C15.7488 36.2344 15.2232 35.8622 15.349 35.3953L16.7728 30.1108C13.3889 28.2969 11.1667 25.2473 11.1667 21.788Z" fill="black"/>
</svg>
