<svg width="56" height="56" viewBox="0 0 56 56" fill="none" xmlns="http://www.w3.org/2000/svg">
<path fill-rule="evenodd" clip-rule="evenodd" d="M28 56C43.464 56 56 43.464 56 28C56 12.536 43.464 0 28 0C12.536 0 0 12.536 0 28C0 43.464 12.536 56 28 56ZM13.0278 25.4193C13.0278 18.9299 19.7307 13.6682 28.0001 13.6682C36.2688 13.6682 42.9721 18.9299 42.9721 25.4193C42.9721 31.9091 36.2688 37.1705 28.0001 37.1705C27.3647 37.1705 26.7402 37.1354 26.1257 37.0751L18.8445 41.9578C18.3736 42.2735 17.7604 41.8393 17.9071 41.2945L19.5682 35.1292C15.6203 33.0131 13.0278 29.4552 13.0278 25.4193Z" fill="#FFFFFD"/>
</svg>
