<svg width="56" height="56" viewBox="0 0 56 56" fill="none" xmlns="http://www.w3.org/2000/svg">
<path fill-rule="evenodd" clip-rule="evenodd" d="M28 56C43.464 56 56 43.464 56 28C56 12.536 43.464 0 28 0C12.536 0 0 12.536 0 28C0 43.464 12.536 56 28 56ZM31.8434 15.7374C34.1671 13.4209 37.9387 13.4209 40.2624 15.7374C42.5802 18.06 42.5802 21.8296 40.2565 24.1522L36.9616 27.4454C35.8414 28.571 34.3459 29.1903 32.755 29.1903C31.6528 29.1903 30.5982 28.8866 29.6806 28.3327L28.3281 29.6846C29.7104 31.9714 29.4184 34.9907 27.4463 36.9619L24.1513 40.2551C23.0312 41.3806 21.5357 42 19.9448 42C19.1631 42.0014 18.3888 41.848 17.6668 41.5485C16.9448 41.249 16.2893 40.8094 15.7383 40.2551C13.4206 37.9326 13.4206 34.157 15.7383 31.8404L19.0332 28.5471C20.1534 27.4216 21.6489 26.8022 23.2397 26.8022C24.3237 26.8019 25.387 27.0985 26.3142 27.6598L27.6667 26.308C26.2844 24.0212 26.5764 21.0019 28.5485 19.0307L31.8434 15.7374ZM22.1375 38.2244L25.4324 34.9311C26.2725 34.0914 26.5108 32.8885 26.1891 31.8285L24.3361 33.6805C24.056 33.9604 23.6926 34.0974 23.3232 34.0974C22.9537 34.0974 22.5903 33.9604 22.3103 33.6805C22.1771 33.5483 22.0715 33.391 21.9994 33.2178C21.9273 33.0445 21.8902 32.8587 21.8902 32.6711C21.8902 32.4835 21.9273 32.2977 21.9994 32.1245C22.0715 31.9513 22.1771 31.794 22.3103 31.6617L24.1633 29.8096C23.8713 29.7144 23.5615 29.6548 23.2457 29.6548C22.8394 29.6535 22.4369 29.7328 22.0615 29.8882C21.6862 30.0436 21.3454 30.2719 21.059 30.56L17.7641 33.8532C17.186 34.4339 16.8615 35.2197 16.8615 36.0388C16.8615 36.8579 17.186 37.6437 17.7641 38.2244C18.348 38.808 19.1226 39.1296 19.9508 39.1296C20.779 39.1296 21.5536 38.808 22.1375 38.2244ZM34.9477 25.4266L38.2426 22.1334C39.4461 20.9244 39.4461 18.9652 38.2426 17.7622C37.6408 17.1607 36.8484 16.857 36.0559 16.857C35.6498 16.8567 35.2475 16.9365 34.8723 17.0918C34.4971 17.2471 34.1562 17.475 33.8692 17.7622L30.5743 21.0555C29.7342 21.8951 29.4959 23.0981 29.8236 24.1581L31.6766 22.3061C31.8089 22.173 31.9663 22.0674 32.1396 21.9953C32.3129 21.9233 32.4988 21.8862 32.6865 21.8862C32.8742 21.8862 33.0601 21.9233 33.2334 21.9953C33.4067 22.0674 33.5641 22.173 33.6964 22.3061C34.2565 22.8658 34.2565 23.7651 33.6964 24.3249L31.8434 26.177C32.1354 26.2722 32.4452 26.3318 32.761 26.3318C33.1673 26.3331 33.5698 26.2538 33.9452 26.0984C34.3205 25.943 34.6613 25.7147 34.9477 25.4266Z" fill="#FFFFFD"/>
</svg>
