<svg width="48" height="48" viewBox="0 0 48 48" fill="none" xmlns="http://www.w3.org/2000/svg">
<path fill-rule="evenodd" clip-rule="evenodd" d="M24 48C37.2548 48 48 37.2548 48 24C48 10.7452 37.2548 0 24 0C10.7452 0 0 10.7452 0 24C0 37.2548 10.7452 48 24 48ZM27.2944 13.4892C29.2861 11.5036 32.5189 11.5036 34.5107 13.4892C36.4973 15.48 36.4973 18.7111 34.5055 20.7019L31.6813 23.5246C30.7212 24.4894 29.4393 25.0203 28.0758 25.0203C27.1309 25.0203 26.227 24.7599 25.4405 24.2852L24.2812 25.4439C25.466 27.404 25.2158 29.992 23.5254 31.6816L20.7012 34.5044C19.741 35.4691 18.4592 36 17.0956 36C16.4255 36.0012 15.7618 35.8697 15.143 35.613C14.5241 35.3563 13.9623 34.9795 13.49 34.5044C11.5033 32.5136 11.5033 29.2774 13.49 27.2917L16.3142 24.469C17.2743 23.5042 18.5562 22.9734 19.9198 22.9734C20.8489 22.9731 21.7603 23.2273 22.555 23.7084L23.7143 22.5497C22.5295 20.5896 22.7797 18.0016 24.4702 16.312L27.2944 13.4892ZM18.975 32.7638L21.7992 29.941C22.5193 29.2212 22.7236 28.1901 22.4478 27.2815L20.8595 28.869C20.6194 29.1089 20.3079 29.2263 19.9913 29.2263C19.6746 29.2263 19.3631 29.1089 19.1231 28.869C19.009 28.7557 18.9184 28.6208 18.8566 28.4724C18.7948 28.3239 18.763 28.1646 18.763 28.0038C18.763 27.843 18.7948 27.6838 18.8566 27.5353C18.9184 27.3868 19.009 27.252 19.1231 27.1386L20.7114 25.5511C20.4611 25.4694 20.1956 25.4184 19.9249 25.4184C19.5766 25.4173 19.2316 25.4853 18.9099 25.6185C18.5881 25.7516 18.2961 25.9474 18.0506 26.1943L15.2264 29.0171C14.7309 29.5148 14.4527 30.1883 14.4527 30.8904C14.4527 31.5925 14.7309 32.2661 15.2264 32.7638C15.7269 33.264 16.3908 33.5396 17.1007 33.5396C17.8106 33.5396 18.4745 33.264 18.975 32.7638ZM29.9552 21.7942L32.7794 18.9714C33.811 17.9352 33.811 16.2559 32.7794 15.2248C32.2635 14.7092 31.5843 14.4489 30.9051 14.4489C30.5569 14.4486 30.2122 14.517 29.8906 14.6501C29.5689 14.7832 29.2767 14.9785 29.0308 15.2248L26.2066 18.0475C25.4865 18.7673 25.2822 19.7984 25.5631 20.707L27.1514 19.1195C27.2648 19.0054 27.3997 18.9149 27.5482 18.8531C27.6968 18.7914 27.8561 18.7596 28.017 18.7596C28.1779 18.7596 28.3372 18.7914 28.4858 18.8531C28.6344 18.9149 28.7692 19.0054 28.8827 19.1195C29.3627 19.5993 29.3627 20.3701 28.8827 20.8499L27.2944 22.4374C27.5446 22.5191 27.8102 22.5701 28.0809 22.5701C28.4291 22.5712 28.7741 22.5032 29.0959 22.37C29.4176 22.2369 29.7097 22.0411 29.9552 21.7942Z" fill="black"/>
</svg>
